<svg width="32" height="32" viewBox="0 0 32 32" fill="none" xmlns="http://www.w3.org/2000/svg">
<path d="M24.8525 13.28C24.6305 9.48298 21.4997 6.44775 17.7266 6.44775C15.434 6.44775 13.2179 7.57253 11.8424 9.40417C11.8114 9.38746 11.7779 9.37552 11.7445 9.36119C11.6609 9.32059 11.5749 9.28238 11.489 9.24656C11.4412 9.22746 11.3911 9.21074 11.3433 9.19402C11.2573 9.16537 11.169 9.13671 11.083 9.11283C11.0352 9.10089 10.9851 9.08656 10.9373 9.07462C10.8418 9.05313 10.7463 9.03641 10.646 9.02208C10.603 9.01492 10.5624 9.00775 10.517 9.00298C10.3761 8.98626 10.2352 8.9791 10.0919 8.9791C7.99762 8.9791 6.29493 10.6818 6.29493 12.7761C6.29493 12.8286 6.29732 12.8812 6.3021 12.9361V12.9385C4.54926 13.8937 3.34329 15.8973 3.34329 17.9033C3.34329 20.8931 5.77434 23.3218 8.7618 23.3218H19.1045C19.1475 23.3218 19.1928 23.3194 19.2358 23.3146L19.2621 23.3122L19.3194 23.3146C19.3624 23.317 19.4054 23.3218 19.4508 23.3218H23.5869C26.3857 23.3218 28.6615 21.0436 28.6615 18.2472C28.6615 15.9331 27.0472 13.8555 24.8525 13.28ZM5.02926 15.2549C5.50687 14.5361 6.15643 13.9367 6.90389 13.5785L7.1427 13.4639V13.1988C7.1427 13.1463 7.14508 13.0913 7.14986 13.0364L7.15225 12.9695L7.14747 12.8812C7.14508 12.8478 7.1427 12.8119 7.1427 12.7785C7.1427 11.1498 8.46807 9.82447 10.0967 9.82447C10.2281 9.82447 10.3546 9.83641 10.4836 9.85313C10.517 9.8579 10.5481 9.86268 10.5815 9.86984C10.6937 9.88895 10.8036 9.91283 10.9134 9.94387C10.9278 9.94865 10.9421 9.95104 10.9588 9.95581C11.0782 9.99402 11.1952 10.0394 11.3122 10.0919C11.3409 10.1063 11.3719 10.1206 11.4006 10.1349C11.5009 10.1851 11.6012 10.24 11.6967 10.3021C12.5111 10.8275 13.0508 11.7421 13.0508 12.7809C13.0508 13.0125 13.2394 13.2012 13.4711 13.2012C13.7027 13.2012 13.8914 13.0125 13.8914 12.7809C13.8914 11.6203 13.366 10.5791 12.5421 9.88178C13.7528 8.2985 15.7445 7.29551 17.7266 7.29551C20.9958 7.29551 23.7087 9.88417 23.9928 13.1558C23.563 13.1272 22.9158 13.1104 22.2687 13.2084C22.037 13.2418 21.8794 13.4591 21.9152 13.6884C21.9463 13.8985 22.1254 14.0466 22.3331 14.0466C22.3546 14.0466 22.3761 14.0442 22.3976 14.0418C23.3361 13.9009 24.3152 14.0322 24.3749 14.0394C25.2346 14.2018 26.0012 14.6412 26.5911 15.2525C25.3755 15.2549 5.6621 15.2549 5.02926 15.2549Z" fill="#407DC0"/>
<path d="M30.5457 30.5457H27.637V32H32V27.637H30.5457V30.5457Z" fill="#407DC0"/>
<path d="M32 0H27.637V1.45433H30.5457V4.36299H32V0Z" fill="#407DC0"/>
<path d="M0 32H4.36299V30.5457H1.45433V27.637H0V32Z" fill="#407DC0"/>
<path d="M0 4.36299H1.45433V1.45433H4.36299V0H0V4.36299Z" fill="#407DC0"/>
</svg>
