<?xml version="1.0" encoding="UTF-8" standalone="no"?>
<svg
   xmlns:dc="http://purl.org/dc/elements/1.1/"
   xmlns:cc="http://creativecommons.org/ns#"
   xmlns:rdf="http://www.w3.org/1999/02/22-rdf-syntax-ns#"
   xmlns:svg="http://www.w3.org/2000/svg"
   xmlns="http://www.w3.org/2000/svg"
   xmlns:sodipodi="http://sodipodi.sourceforge.net/DTD/sodipodi-0.dtd"
   xmlns:inkscape="http://www.inkscape.org/namespaces/inkscape"
   height="304"
   viewBox="0 0 697 304"
   width="697"
   id="svg2"
   version="1.1"
   inkscape:version="0.91 r13725"
   sodipodi:docname="header.svg"
   inkscape:export-filename="/home/janoszen/opsbears/cscanner/docs/img/opengraph.png"
   inkscape:export-xdpi="90"
   inkscape:export-ydpi="90"
   style="fill:none">
  <metadata
     id="metadata26">
    <rdf:RDF>
      <cc:Work
         rdf:about="">
        <dc:format>image/svg+xml</dc:format>
        <dc:type
           rdf:resource="http://purl.org/dc/dcmitype/StillImage" />
        <dc:title></dc:title>
      </cc:Work>
    </rdf:RDF>
  </metadata>
  <defs
     id="defs24" />
  <sodipodi:namedview
     pagecolor="#ffffff"
     bordercolor="#666666"
     borderopacity="1"
     objecttolerance="10"
     gridtolerance="10"
     guidetolerance="10"
     inkscape:pageopacity="0"
     inkscape:pageshadow="2"
     inkscape:window-width="1920"
     inkscape:window-height="1005"
     id="namedview22"
     showgrid="false"
     inkscape:zoom="1.1666667"
     inkscape:cx="374.92542"
     inkscape:cy="61.316856"
     inkscape:window-x="0"
     inkscape:window-y="24"
     inkscape:window-maximized="1"
     inkscape:current-layer="svg2" />
  <g
     id="g4154"
     transform="matrix(1.6501625,0,0,1.6501625,-598.31126,-367.81419)">
    <g
       id="g6"
       style="fill:#ffffff">
      <path
         id="path8"
         d="m 583.774,273.852 c 1.728,0 3.232,0.272 4.512,0.816 1.28,0.512 2.544,1.328 3.792,2.448 l -2.304,2.688 c -0.928,-0.8 -1.856,-1.392 -2.784,-1.776 -0.896,-0.384 -1.888,-0.576 -2.976,-0.576 -2.496,0 -4.48,1.072 -5.952,3.216 -1.472,2.112 -2.208,5.536 -2.208,10.272 0,4.608 0.736,8.016 2.208,10.224 1.472,2.176 3.456,3.264 5.952,3.264 1.248,0 2.32,-0.224 3.216,-0.672 0.896,-0.448 1.872,-1.104 2.928,-1.968 l 2.256,2.64 c -2.4,2.464 -5.28,3.696 -8.64,3.696 -2.464,0 -4.656,-0.64 -6.576,-1.92 -1.888,-1.28 -3.376,-3.2 -4.464,-5.76 -1.056,-2.592 -1.584,-5.76 -1.584,-9.504 0,-3.712 0.544,-6.848 1.632,-9.408 1.12,-2.56 2.624,-4.48 4.512,-5.76 1.92,-1.28 4.08,-1.92 6.48,-1.92 z m 20.927,0 c 1.952,0 3.648,0.32 5.088,0.96 1.472,0.64 2.848,1.6 4.128,2.88 l -2.256,2.544 c -1.088,-0.96 -2.176,-1.664 -3.264,-2.112 -1.056,-0.48 -2.208,-0.72 -3.456,-0.72 -1.6,0 -2.896,0.448 -3.888,1.344 -0.96,0.864 -1.44,2.016 -1.44,3.456 0,0.96 0.192,1.792 0.576,2.496 0.384,0.672 1.04,1.296 1.968,1.872 0.928,0.544 2.24,1.104 3.936,1.68 1.952,0.704 3.552,1.456 4.8,2.256 1.248,0.8 2.208,1.824 2.88,3.072 0.672,1.248 1.008,2.816 1.008,4.704 0,1.888 -0.432,3.584 -1.296,5.088 -0.864,1.472 -2.112,2.64 -3.744,3.504 -1.6,0.832 -3.488,1.248 -5.664,1.248 -4,0 -7.408,-1.44 -10.224,-4.32 l 2.352,-2.544 c 1.184,1.056 2.384,1.872 3.6,2.448 1.248,0.544 2.624,0.816 4.128,0.816 1.888,0 3.392,-0.528 4.512,-1.584 1.152,-1.088 1.728,-2.576 1.728,-4.464 0,-1.632 -0.464,-2.928 -1.392,-3.888 -0.896,-0.96 -2.56,-1.856 -4.992,-2.688 -3.104,-1.088 -5.344,-2.352 -6.72,-3.792 -1.344,-1.44 -2.016,-3.312 -2.016,-5.616 0,-1.632 0.4,-3.104 1.2,-4.416 0.832,-1.344 1.984,-2.384 3.456,-3.12 1.472,-0.736 3.136,-1.104 4.992,-1.104 z m 26.932,0 c 1.728,0 3.232,0.272 4.512,0.816 1.28,0.512 2.544,1.328 3.792,2.448 l -2.304,2.688 c -0.928,-0.8 -1.856,-1.392 -2.784,-1.776 -0.896,-0.384 -1.888,-0.576 -2.976,-0.576 -2.496,0 -4.48,1.072 -5.952,3.216 -1.472,2.112 -2.208,5.536 -2.208,10.272 0,4.608 0.736,8.016 2.208,10.224 1.472,2.176 3.456,3.264 5.952,3.264 1.248,0 2.32,-0.224 3.216,-0.672 0.896,-0.448 1.872,-1.104 2.928,-1.968 l 2.256,2.64 c -2.4,2.464 -5.28,3.696 -8.64,3.696 -2.464,0 -4.656,-0.64 -6.576,-1.92 -1.888,-1.28 -3.376,-3.2 -4.464,-5.76 -1.056,-2.592 -1.584,-5.76 -1.584,-9.504 0,-3.712 0.544,-6.848 1.632,-9.408 1.12,-2.56 2.624,-4.48 4.512,-5.76 1.92,-1.28 4.08,-1.92 6.48,-1.92 z m 29.655,33.648 -2.208,-8.4 -11.088,0 -2.208,8.4 -4.464,0 9.552,-33.024 5.472,0 9.552,33.024 z m -12.384,-11.904 9.264,0 -4.608,-17.568 z m 42.402,11.904 -5.76,0 -11.76,-28.368 c 0.384,4.224 0.576,8.336 0.576,12.336 l 0,16.032 -4.032,0 0,-33.024 5.712,0 11.808,28.416 c -0.128,-1.12 -0.272,-2.656 -0.432,-4.608 -0.128,-1.952 -0.192,-3.888 -0.192,-5.808 l 0,-18 4.08,0 z m 29.156,0 -5.76,0 -11.76,-28.368 c 0.384,4.224 0.576,8.336 0.576,12.336 l 0,16.032 -4.032,0 0,-33.024 5.712,0 11.808,28.416 c -0.128,-1.12 -0.272,-2.656 -0.432,-4.608 -0.128,-1.952 -0.192,-3.888 -0.192,-5.808 l 0,-18 4.08,0 z m 24.597,-33.024 -0.528,3.456 -11.424,0 0,10.896 9.936,0 0,3.456 -9.936,0 0,11.712 12.096,0 0,3.504 -16.56,0 0,-33.024 z m 22.308,33.024 -7.104,-14.064 -0.288,0 -4.368,0 0,14.064 -4.464,0 0,-33.024 7.728,0 c 7.872,0 11.808,3.104 11.808,9.312 0,2.176 -0.528,4.016 -1.584,5.52 -1.056,1.504 -2.608,2.608 -4.656,3.312 l 7.872,14.88 z m -8.16,-17.472 c 2.304,0 4.016,-0.496 5.136,-1.488 1.12,-1.024 1.68,-2.608 1.68,-4.752 0,-2.016 -0.576,-3.504 -1.728,-4.464 -1.12,-0.96 -2.96,-1.44 -5.52,-1.44 l -3.168,0 0,12.144 z"
         inkscape:connector-curvature="0" />
      <path
         id="path10"
         d="m 577.614,347 -0.828,-3.15 -4.158,0 -0.828,3.15 -1.674,0 3.582,-12.384 2.052,0 3.582,12.384 z m -4.644,-4.464 3.474,0 -1.728,-6.588 z m 16.015,-8.154 c 0.648,0 1.212,0.102 1.692,0.306 0.48,0.192 0.954,0.498 1.422,0.918 l -0.864,1.008 c -0.348,-0.3 -0.696,-0.522 -1.044,-0.666 -0.336,-0.144 -0.708,-0.216 -1.116,-0.216 -0.936,0 -1.68,0.402 -2.232,1.206 -0.552,0.792 -0.828,2.076 -0.828,3.852 0,1.728 0.276,3.006 0.828,3.834 0.552,0.816 1.296,1.224 2.232,1.224 0.468,0 0.87,-0.084 1.206,-0.252 0.336,-0.168 0.702,-0.414 1.098,-0.738 l 0.846,0.99 c -0.9,0.924 -1.98,1.386 -3.24,1.386 -0.924,0 -1.746,-0.24 -2.466,-0.72 -0.708,-0.48 -1.266,-1.2 -1.674,-2.16 -0.396,-0.972 -0.594,-2.16 -0.594,-3.564 0,-1.392 0.204,-2.568 0.612,-3.528 0.42,-0.96 0.984,-1.68 1.692,-2.16 0.72,-0.48 1.53,-0.72 2.43,-0.72 z m 6.531,0.234 0,10.962 4.518,0 -0.18,1.422 -6.012,0 0,-12.384 z m 9.439,-0.234 c 1.476,0 2.634,0.546 3.474,1.638 0.852,1.08 1.278,2.676 1.278,4.788 0,2.076 -0.42,3.666 -1.26,4.77 -0.84,1.104 -2.004,1.656 -3.492,1.656 -1.476,0 -2.64,-0.54 -3.492,-1.62 -0.84,-1.092 -1.26,-2.688 -1.26,-4.788 0,-1.38 0.192,-2.55 0.576,-3.51 0.396,-0.972 0.948,-1.704 1.656,-2.196 0.72,-0.492 1.56,-0.738 2.52,-0.738 z m 0,1.332 c -1.992,0 -2.988,1.704 -2.988,5.112 0,3.372 0.996,5.058 2.988,5.058 0.984,0 1.728,-0.402 2.232,-1.206 0.504,-0.804 0.756,-2.094 0.756,-3.87 0,-1.764 -0.258,-3.054 -0.774,-3.87 -0.504,-0.816 -1.242,-1.224 -2.214,-1.224 z m 14.723,7.65 c 0,1.14 -0.342,2.07 -1.026,2.79 -0.684,0.72 -1.662,1.08 -2.934,1.08 -1.284,0 -2.262,-0.354 -2.934,-1.062 -0.672,-0.72 -1.008,-1.656 -1.008,-2.808 l 0,-8.748 1.674,0 0,8.64 c 0,1.74 0.756,2.61 2.268,2.61 1.512,0 2.268,-0.87 2.268,-2.61 l 0,-8.64 1.692,0 z m 5.236,-8.748 c 1.068,0 1.998,0.162 2.79,0.486 0.792,0.324 1.434,0.936 1.926,1.836 0.504,0.9 0.756,2.166 0.756,3.798 0,2.328 -0.498,3.954 -1.494,4.878 -0.984,0.924 -2.232,1.386 -3.744,1.386 l -2.79,0 0,-12.384 z m -0.882,1.314 0,9.774 1.224,0 c 1.032,0 1.854,-0.354 2.466,-1.062 0.612,-0.72 0.918,-2.022 0.918,-3.906 0,-1.32 -0.162,-2.334 -0.486,-3.042 -0.312,-0.708 -0.72,-1.176 -1.224,-1.404 -0.492,-0.24 -1.08,-0.36 -1.764,-0.36 z m 15.595,-1.548 c 0.732,0 1.368,0.12 1.908,0.36 0.552,0.24 1.068,0.6 1.548,1.08 l -0.846,0.954 c -0.408,-0.36 -0.816,-0.624 -1.224,-0.792 -0.396,-0.18 -0.828,-0.27 -1.296,-0.27 -0.6,0 -1.086,0.168 -1.458,0.504 -0.36,0.324 -0.54,0.756 -0.54,1.296 0,0.36 0.072,0.672 0.216,0.936 0.144,0.252 0.39,0.486 0.738,0.702 0.348,0.204 0.84,0.414 1.476,0.63 0.732,0.264 1.332,0.546 1.8,0.846 0.468,0.3 0.828,0.684 1.08,1.152 0.252,0.468 0.378,1.056 0.378,1.764 0,0.708 -0.162,1.344 -0.486,1.908 -0.324,0.552 -0.792,0.99 -1.404,1.314 -0.6,0.312 -1.308,0.468 -2.124,0.468 -1.5,0 -2.778,-0.54 -3.834,-1.62 l 0.882,-0.954 c 0.444,0.396 0.894,0.702 1.35,0.918 0.468,0.204 0.984,0.306 1.548,0.306 0.708,0 1.272,-0.198 1.692,-0.594 0.432,-0.408 0.648,-0.966 0.648,-1.674 0,-0.612 -0.174,-1.098 -0.522,-1.458 -0.336,-0.36 -0.96,-0.696 -1.872,-1.008 -1.164,-0.408 -2.004,-0.882 -2.52,-1.422 -0.504,-0.54 -0.756,-1.242 -0.756,-2.106 0,-0.612 0.15,-1.164 0.45,-1.656 0.312,-0.504 0.744,-0.894 1.296,-1.17 0.552,-0.276 1.176,-0.414 1.872,-0.414 z m 11.972,0.234 -0.198,1.296 -4.284,0 0,4.086 3.726,0 0,1.296 -3.726,0 0,4.392 4.536,0 0,1.314 -6.21,0 0,-12.384 z m 5.995,-0.234 c 0.648,0 1.212,0.102 1.692,0.306 0.48,0.192 0.954,0.498 1.422,0.918 l -0.864,1.008 c -0.348,-0.3 -0.696,-0.522 -1.044,-0.666 -0.336,-0.144 -0.708,-0.216 -1.116,-0.216 -0.936,0 -1.68,0.402 -2.232,1.206 -0.552,0.792 -0.828,2.076 -0.828,3.852 0,1.728 0.276,3.006 0.828,3.834 0.552,0.816 1.296,1.224 2.232,1.224 0.468,0 0.87,-0.084 1.206,-0.252 0.336,-0.168 0.702,-0.414 1.098,-0.738 l 0.846,0.99 c -0.9,0.924 -1.98,1.386 -3.24,1.386 -0.924,0 -1.746,-0.24 -2.466,-0.72 -0.708,-0.48 -1.266,-1.2 -1.674,-2.16 -0.396,-0.972 -0.594,-2.16 -0.594,-3.564 0,-1.392 0.204,-2.568 0.612,-3.528 0.42,-0.96 0.984,-1.68 1.692,-2.16 0.72,-0.48 1.53,-0.72 2.43,-0.72 z m 12.403,8.982 c 0,1.14 -0.342,2.07 -1.026,2.79 -0.684,0.72 -1.662,1.08 -2.934,1.08 -1.284,0 -2.262,-0.354 -2.934,-1.062 -0.672,-0.72 -1.008,-1.656 -1.008,-2.808 l 0,-8.748 1.674,0 0,8.64 c 0,1.74 0.756,2.61 2.268,2.61 1.512,0 2.268,-0.87 2.268,-2.61 l 0,-8.64 1.692,0 z m 8.764,3.636 -2.664,-5.274 -0.108,0 -1.638,0 0,5.274 -1.674,0 0,-12.384 2.898,0 c 2.952,0 4.428,1.164 4.428,3.492 0,0.816 -0.198,1.506 -0.594,2.07 -0.396,0.564 -0.978,0.978 -1.746,1.242 l 2.952,5.58 z m -3.06,-6.552 c 0.864,0 1.506,-0.186 1.926,-0.558 0.42,-0.384 0.63,-0.978 0.63,-1.782 0,-0.756 -0.216,-1.314 -0.648,-1.674 -0.42,-0.36 -1.11,-0.54 -2.07,-0.54 l -1.188,0 0,4.554 z m 8.278,-5.832 0,12.384 -1.674,0 0,-12.384 z m 9.571,0 -0.198,1.368 -3.042,0 0,11.016 -1.674,0 0,-11.016 -3.132,0 0,-1.368 z m 8.8,0 -3.564,7.614 0,4.77 -1.692,0 0,-4.752 -3.564,-7.632 1.8,0 2.646,6.192 2.628,-6.192 z m 8.413,-0.234 c 0.732,0 1.368,0.12 1.908,0.36 0.552,0.24 1.068,0.6 1.548,1.08 l -0.846,0.954 c -0.408,-0.36 -0.816,-0.624 -1.224,-0.792 -0.396,-0.18 -0.828,-0.27 -1.296,-0.27 -0.6,0 -1.086,0.168 -1.458,0.504 -0.36,0.324 -0.54,0.756 -0.54,1.296 0,0.36 0.072,0.672 0.216,0.936 0.144,0.252 0.39,0.486 0.738,0.702 0.348,0.204 0.84,0.414 1.476,0.63 0.732,0.264 1.332,0.546 1.8,0.846 0.468,0.3 0.828,0.684 1.08,1.152 0.252,0.468 0.378,1.056 0.378,1.764 0,0.708 -0.162,1.344 -0.486,1.908 -0.324,0.552 -0.792,0.99 -1.404,1.314 -0.6,0.312 -1.308,0.468 -2.124,0.468 -1.5,0 -2.778,-0.54 -3.834,-1.62 l 0.882,-0.954 c 0.444,0.396 0.894,0.702 1.35,0.918 0.468,0.204 0.984,0.306 1.548,0.306 0.708,0 1.272,-0.198 1.692,-0.594 0.432,-0.408 0.648,-0.966 0.648,-1.674 0,-0.612 -0.174,-1.098 -0.522,-1.458 -0.336,-0.36 -0.96,-0.696 -1.872,-1.008 -1.164,-0.408 -2.004,-0.882 -2.52,-1.422 -0.504,-0.54 -0.756,-1.242 -0.756,-2.106 0,-0.612 0.15,-1.164 0.45,-1.656 0.312,-0.504 0.744,-0.894 1.296,-1.17 0.552,-0.276 1.176,-0.414 1.872,-0.414 z m 9.92,0 c 0.648,0 1.212,0.102 1.692,0.306 0.48,0.192 0.954,0.498 1.422,0.918 l -0.864,1.008 c -0.348,-0.3 -0.696,-0.522 -1.044,-0.666 -0.336,-0.144 -0.708,-0.216 -1.116,-0.216 -0.936,0 -1.68,0.402 -2.232,1.206 -0.552,0.792 -0.828,2.076 -0.828,3.852 0,1.728 0.276,3.006 0.828,3.834 0.552,0.816 1.296,1.224 2.232,1.224 0.468,0 0.87,-0.084 1.206,-0.252 0.336,-0.168 0.702,-0.414 1.098,-0.738 l 0.846,0.99 c -0.9,0.924 -1.98,1.386 -3.24,1.386 -0.924,0 -1.746,-0.24 -2.466,-0.72 -0.708,-0.48 -1.266,-1.2 -1.674,-2.16 -0.396,-0.972 -0.594,-2.16 -0.594,-3.564 0,-1.392 0.204,-2.568 0.612,-3.528 0.42,-0.96 0.984,-1.68 1.692,-2.16 0.72,-0.48 1.53,-0.72 2.43,-0.72 z m 10.941,12.618 -0.828,-3.15 -4.158,0 -0.828,3.15 -1.674,0 3.582,-12.384 2.052,0 3.582,12.384 z m -4.644,-4.464 3.474,0 -1.728,-6.588 z m 15.72,4.464 -2.16,0 -4.41,-10.638 c 0.144,1.584 0.216,3.126 0.216,4.626 l 0,6.012 -1.512,0 0,-12.384 2.142,0 4.428,10.656 c -0.048,-0.42 -0.102,-0.996 -0.162,-1.728 -0.048,-0.732 -0.072,-1.458 -0.072,-2.178 l 0,-6.75 1.53,0 z m 10.754,0 -2.16,0 -4.41,-10.638 c 0.144,1.584 0.216,3.126 0.216,4.626 l 0,6.012 -1.512,0 0,-12.384 2.142,0 4.428,10.656 c -0.048,-0.42 -0.102,-0.996 -0.162,-1.728 -0.048,-0.732 -0.072,-1.458 -0.072,-2.178 l 0,-6.75 1.53,0 z m 9.043,-12.384 -0.198,1.296 -4.284,0 0,4.086 3.726,0 0,1.296 -3.726,0 0,4.392 4.536,0 0,1.314 -6.21,0 0,-12.384 z m 8.186,12.384 -2.664,-5.274 -0.108,0 -1.638,0 0,5.274 -1.674,0 0,-12.384 2.898,0 c 2.952,0 4.428,1.164 4.428,3.492 0,0.816 -0.198,1.506 -0.594,2.07 -0.396,0.564 -0.978,0.978 -1.746,1.242 l 2.952,5.58 z m -3.06,-6.552 c 0.864,0 1.506,-0.186 1.926,-0.558 0.42,-0.384 0.63,-0.978 0.63,-1.782 0,-0.756 -0.216,-1.314 -0.648,-1.674 -0.42,-0.36 -1.11,-0.54 -2.07,-0.54 l -1.188,0 0,4.554 z"
         inkscape:connector-curvature="0" />
      <path
         id="path12"
         d="m 499.263,301.4 c -1.111,-18.985 -16.765,-34.161 -35.63,-34.161 -11.463,0 -22.543,5.624 -29.421,14.782 -0.155,-0.084 -0.322,-0.143 -0.49,-0.215 -0.418,-0.203 -0.847,-0.394 -1.277,-0.573 -0.239,-0.096 -0.49,-0.179 -0.729,-0.263 -0.429,-0.143 -0.871,-0.286 -1.301,-0.406 -0.239,-0.06 -0.49,-0.131 -0.728,-0.191 -0.478,-0.107 -0.956,-0.191 -1.457,-0.263 -0.215,-0.035 -0.418,-0.071 -0.645,-0.095 -0.704,-0.084 -1.409,-0.119 -2.125,-0.119 -10.472,0 -18.985,8.513 -18.985,18.985 0,0.262 0.012,0.525 0.035,0.8 l 0,0.012 c -8.764,4.776 -14.794,14.794 -14.794,24.823 0,14.95 12.156,27.093 27.093,27.093 l 51.713,0 c 0.215,0 0.442,-0.012 0.657,-0.036 l 0.131,-0.012 0.287,0.012 c 0.215,0.012 0.43,0.036 0.657,0.036 l 20.68,0 c 13.994,0 25.373,-11.391 25.373,-25.373 0,-11.57 -8.071,-21.958 -19.044,-24.836 z m -99.117,9.875 c 2.388,-3.594 5.636,-6.591 9.373,-8.382 l 1.194,-0.574 0,-1.325 c 0,-0.263 0.012,-0.537 0.036,-0.812 l 0.012,-0.334 -0.024,-0.442 c -0.012,-0.167 -0.024,-0.346 -0.024,-0.513 0,-8.144 6.627,-14.771 14.771,-14.771 0.656,0 1.289,0.06 1.934,0.144 0.167,0.024 0.322,0.047 0.489,0.083 0.562,0.096 1.111,0.215 1.66,0.37 0.072,0.024 0.143,0.036 0.227,0.06 0.597,0.191 1.182,0.418 1.767,0.681 0.143,0.071 0.299,0.143 0.442,0.215 0.501,0.25 1.003,0.525 1.481,0.835 4.071,2.627 6.77,7.2 6.77,12.394 0,1.159 0.943,2.102 2.101,2.102 1.158,0 2.102,-0.943 2.102,-2.102 0,-5.803 -2.627,-11.008 -6.747,-14.495 6.054,-7.916 16.012,-12.931 25.923,-12.931 16.346,0 29.91,12.943 31.331,29.301 -2.149,-0.143 -5.385,-0.227 -8.621,0.263 -1.158,0.167 -1.946,1.254 -1.767,2.4 0.155,1.051 1.051,1.791 2.09,1.791 0.107,0 0.215,-0.012 0.322,-0.024 4.693,-0.705 9.588,-0.048 9.887,-0.012 4.298,0.812 8.131,3.009 11.08,6.066 -6.077,0.012 -104.645,0.012 -107.809,0.012 z"
         inkscape:connector-curvature="0" />
      <path
         id="path14"
         d="m 527.728,387.728 -14.543,0 0,7.272 21.815,0 0,-21.815 -7.272,0 z"
         inkscape:connector-curvature="0" />
      <path
         id="path16"
         d="m 535,235 -21.815,0 0,7.272 14.543,0 0,14.543 7.272,0 z"
         inkscape:connector-curvature="0" />
      <path
         id="path18"
         d="m 375,395 21.815,0 0,-7.272 -14.543,0 0,-14.543 -7.272,0 z"
         inkscape:connector-curvature="0" />
      <path
         id="path20"
         d="m 375,256.815 7.272,0 0,-14.543 14.543,0 0,-7.272 -21.815,0 z"
         inkscape:connector-curvature="0" />
    </g>
  </g>
</svg>
