<svg fill="none" height="630" viewBox="0 0 1200 630" width="1200" xmlns="http://www.w3.org/2000/svg"><path d="m0 0h1200v630h-1200z" fill="#407dc0"/><g fill="#fff"><path d="m583.774 273.852c1.728 0 3.232.272 4.512.816 1.28.512 2.544 1.328 3.792 2.448l-2.304 2.688c-.928-.8-1.856-1.392-2.784-1.776-.896-.384-1.888-.576-2.976-.576-2.496 0-4.48 1.072-5.952 3.216-1.472 2.112-2.208 5.536-2.208 10.272 0 4.608.736 8.016 2.208 10.224 1.472 2.176 3.456 3.264 5.952 3.264 1.248 0 2.32-.224 3.216-.672s1.872-1.104 2.928-1.968l2.256 2.64c-2.4 2.464-5.28 3.696-8.64 3.696-2.464 0-4.656-.64-6.576-1.92-1.888-1.28-3.376-3.2-4.464-5.76-1.056-2.592-1.584-5.76-1.584-9.504 0-3.712.544-6.848 1.632-9.408 1.12-2.56 2.624-4.48 4.512-5.76 1.92-1.28 4.08-1.92 6.48-1.92zm20.927 0c1.952 0 3.648.32 5.088.96 1.472.64 2.848 1.6 4.128 2.88l-2.256 2.544c-1.088-.96-2.176-1.664-3.264-2.112-1.056-.48-2.208-.72-3.456-.72-1.6 0-2.896.448-3.888 1.344-.96.864-1.44 2.016-1.44 3.456 0 .96.192 1.792.576 2.496.384.672 1.04 1.296 1.968 1.872.928.544 2.24 1.104 3.936 1.68 1.952.704 3.552 1.456 4.8 2.256s2.208 1.824 2.88 3.072 1.008 2.816 1.008 4.704-.432 3.584-1.296 5.088c-.864 1.472-2.112 2.64-3.744 3.504-1.6.832-3.488 1.248-5.664 1.248-4 0-7.408-1.44-10.224-4.32l2.352-2.544c1.184 1.056 2.384 1.872 3.6 2.448 1.248.544 2.624.816 4.128.816 1.888 0 3.392-.528 4.512-1.584 1.152-1.088 1.728-2.576 1.728-4.464 0-1.632-.464-2.928-1.392-3.888-.896-.96-2.56-1.856-4.992-2.688-3.104-1.088-5.344-2.352-6.72-3.792-1.344-1.44-2.016-3.312-2.016-5.616 0-1.632.4-3.104 1.2-4.416.832-1.344 1.984-2.384 3.456-3.12s3.136-1.104 4.992-1.104zm26.932 0c1.728 0 3.232.272 4.512.816 1.28.512 2.544 1.328 3.792 2.448l-2.304 2.688c-.928-.8-1.856-1.392-2.784-1.776-.896-.384-1.888-.576-2.976-.576-2.496 0-4.48 1.072-5.952 3.216-1.472 2.112-2.208 5.536-2.208 10.272 0 4.608.736 8.016 2.208 10.224 1.472 2.176 3.456 3.264 5.952 3.264 1.248 0 2.32-.224 3.216-.672s1.872-1.104 2.928-1.968l2.256 2.64c-2.4 2.464-5.28 3.696-8.64 3.696-2.464 0-4.656-.64-6.576-1.92-1.888-1.28-3.376-3.2-4.464-5.76-1.056-2.592-1.584-5.76-1.584-9.504 0-3.712.544-6.848 1.632-9.408 1.12-2.56 2.624-4.48 4.512-5.76 1.92-1.28 4.08-1.92 6.48-1.92zm29.655 33.648-2.208-8.4h-11.088l-2.208 8.4h-4.464l9.552-33.024h5.472l9.552 33.024zm-12.384-11.904h9.264l-4.608-17.568zm42.402 11.904h-5.76l-11.76-28.368c.384 4.224.576 8.336.576 12.336v16.032h-4.032v-33.024h5.712l11.808 28.416c-.128-1.12-.272-2.656-.432-4.608-.128-1.952-.192-3.888-.192-5.808v-18h4.08zm29.156 0h-5.76l-11.76-28.368c.384 4.224.576 8.336.576 12.336v16.032h-4.032v-33.024h5.712l11.808 28.416c-.128-1.12-.272-2.656-.432-4.608-.128-1.952-.192-3.888-.192-5.808v-18h4.08zm24.597-33.024-.528 3.456h-11.424v10.896h9.936v3.456h-9.936v11.712h12.096v3.504h-16.56v-33.024zm22.308 33.024-7.104-14.064h-.288-4.368v14.064h-4.464v-33.024h7.728c7.872 0 11.808 3.104 11.808 9.312 0 2.176-.528 4.016-1.584 5.52s-2.608 2.608-4.656 3.312l7.872 14.88zm-8.16-17.472c2.304 0 4.016-.496 5.136-1.488 1.12-1.024 1.68-2.608 1.68-4.752 0-2.016-.576-3.504-1.728-4.464-1.12-.96-2.96-1.44-5.52-1.44h-3.168v12.144z"/><path d="m577.614 347-.828-3.15h-4.158l-.828 3.15h-1.674l3.582-12.384h2.052l3.582 12.384zm-4.644-4.464h3.474l-1.728-6.588zm16.015-8.154c.648 0 1.212.102 1.692.306.48.192.954.498 1.422.918l-.864 1.008c-.348-.3-.696-.522-1.044-.666-.336-.144-.708-.216-1.116-.216-.936 0-1.68.402-2.232 1.206-.552.792-.828 2.076-.828 3.852 0 1.728.276 3.006.828 3.834.552.816 1.296 1.224 2.232 1.224.468 0 .87-.084 1.206-.252s.702-.414 1.098-.738l.846.99c-.9.924-1.98 1.386-3.24 1.386-.924 0-1.746-.24-2.466-.72-.708-.48-1.266-1.2-1.674-2.16-.396-.972-.594-2.16-.594-3.564 0-1.392.204-2.568.612-3.528.42-.96.984-1.68 1.692-2.16.72-.48 1.53-.72 2.43-.72zm6.531.234v10.962h4.518l-.18 1.422h-6.012v-12.384zm9.439-.234c1.476 0 2.634.546 3.474 1.638.852 1.08 1.278 2.676 1.278 4.788 0 2.076-.42 3.666-1.26 4.77s-2.004 1.656-3.492 1.656c-1.476 0-2.64-.54-3.492-1.62-.84-1.092-1.26-2.688-1.26-4.788 0-1.38.192-2.55.576-3.51.396-.972.948-1.704 1.656-2.196.72-.492 1.56-.738 2.52-.738zm0 1.332c-1.992 0-2.988 1.704-2.988 5.112 0 3.372.996 5.058 2.988 5.058.984 0 1.728-.402 2.232-1.206s.756-2.094.756-3.87c0-1.764-.258-3.054-.774-3.87-.504-.816-1.242-1.224-2.214-1.224zm14.723 7.65c0 1.14-.342 2.07-1.026 2.79s-1.662 1.08-2.934 1.08c-1.284 0-2.262-.354-2.934-1.062-.672-.72-1.008-1.656-1.008-2.808v-8.748h1.674v8.64c0 1.74.756 2.61 2.268 2.61s2.268-.87 2.268-2.61v-8.64h1.692zm5.236-8.748c1.068 0 1.998.162 2.79.486s1.434.936 1.926 1.836c.504.9.756 2.166.756 3.798 0 2.328-.498 3.954-1.494 4.878-.984.924-2.232 1.386-3.744 1.386h-2.79v-12.384zm-.882 1.314v9.774h1.224c1.032 0 1.854-.354 2.466-1.062.612-.72.918-2.022.918-3.906 0-1.32-.162-2.334-.486-3.042-.312-.708-.72-1.176-1.224-1.404-.492-.24-1.08-.36-1.764-.36zm15.595-1.548c.732 0 1.368.12 1.908.36.552.24 1.068.6 1.548 1.08l-.846.954c-.408-.36-.816-.624-1.224-.792-.396-.18-.828-.27-1.296-.27-.6 0-1.086.168-1.458.504-.36.324-.54.756-.54 1.296 0 .36.072.672.216.936.144.252.39.486.738.702.348.204.84.414 1.476.63.732.264 1.332.546 1.8.846s.828.684 1.08 1.152.378 1.056.378 1.764-.162 1.344-.486 1.908c-.324.552-.792.99-1.404 1.314-.6.312-1.308.468-2.124.468-1.5 0-2.778-.54-3.834-1.62l.882-.954c.444.396.894.702 1.35.918.468.204.984.306 1.548.306.708 0 1.272-.198 1.692-.594.432-.408.648-.966.648-1.674 0-.612-.174-1.098-.522-1.458-.336-.36-.96-.696-1.872-1.008-1.164-.408-2.004-.882-2.52-1.422-.504-.54-.756-1.242-.756-2.106 0-.612.15-1.164.45-1.656.312-.504.744-.894 1.296-1.17s1.176-.414 1.872-.414zm11.972.234-.198 1.296h-4.284v4.086h3.726v1.296h-3.726v4.392h4.536v1.314h-6.21v-12.384zm5.995-.234c.648 0 1.212.102 1.692.306.48.192.954.498 1.422.918l-.864 1.008c-.348-.3-.696-.522-1.044-.666-.336-.144-.708-.216-1.116-.216-.936 0-1.68.402-2.232 1.206-.552.792-.828 2.076-.828 3.852 0 1.728.276 3.006.828 3.834.552.816 1.296 1.224 2.232 1.224.468 0 .87-.084 1.206-.252s.702-.414 1.098-.738l.846.99c-.9.924-1.98 1.386-3.24 1.386-.924 0-1.746-.24-2.466-.72-.708-.48-1.266-1.2-1.674-2.16-.396-.972-.594-2.16-.594-3.564 0-1.392.204-2.568.612-3.528.42-.96.984-1.68 1.692-2.16.72-.48 1.53-.72 2.43-.72zm12.403 8.982c0 1.14-.342 2.07-1.026 2.79s-1.662 1.08-2.934 1.08c-1.284 0-2.262-.354-2.934-1.062-.672-.72-1.008-1.656-1.008-2.808v-8.748h1.674v8.64c0 1.74.756 2.61 2.268 2.61s2.268-.87 2.268-2.61v-8.64h1.692zm8.764 3.636-2.664-5.274h-.108-1.638v5.274h-1.674v-12.384h2.898c2.952 0 4.428 1.164 4.428 3.492 0 .816-.198 1.506-.594 2.07s-.978.978-1.746 1.242l2.952 5.58zm-3.06-6.552c.864 0 1.506-.186 1.926-.558.42-.384.63-.978.63-1.782 0-.756-.216-1.314-.648-1.674-.42-.36-1.11-.54-2.07-.54h-1.188v4.554zm8.278-5.832v12.384h-1.674v-12.384zm9.571 0-.198 1.368h-3.042v11.016h-1.674v-11.016h-3.132v-1.368zm8.8 0-3.564 7.614v4.77h-1.692v-4.752l-3.564-7.632h1.8l2.646 6.192 2.628-6.192zm8.413-.234c.732 0 1.368.12 1.908.36.552.24 1.068.6 1.548 1.08l-.846.954c-.408-.36-.816-.624-1.224-.792-.396-.18-.828-.27-1.296-.27-.6 0-1.086.168-1.458.504-.36.324-.54.756-.54 1.296 0 .36.072.672.216.936.144.252.39.486.738.702.348.204.84.414 1.476.63.732.264 1.332.546 1.8.846s.828.684 1.08 1.152.378 1.056.378 1.764-.162 1.344-.486 1.908c-.324.552-.792.99-1.404 1.314-.6.312-1.308.468-2.124.468-1.5 0-2.778-.54-3.834-1.62l.882-.954c.444.396.894.702 1.35.918.468.204.984.306 1.548.306.708 0 1.272-.198 1.692-.594.432-.408.648-.966.648-1.674 0-.612-.174-1.098-.522-1.458-.336-.36-.96-.696-1.872-1.008-1.164-.408-2.004-.882-2.52-1.422-.504-.54-.756-1.242-.756-2.106 0-.612.15-1.164.45-1.656.312-.504.744-.894 1.296-1.17s1.176-.414 1.872-.414zm9.92 0c.648 0 1.212.102 1.692.306.48.192.954.498 1.422.918l-.864 1.008c-.348-.3-.696-.522-1.044-.666-.336-.144-.708-.216-1.116-.216-.936 0-1.68.402-2.232 1.206-.552.792-.828 2.076-.828 3.852 0 1.728.276 3.006.828 3.834.552.816 1.296 1.224 2.232 1.224.468 0 .87-.084 1.206-.252s.702-.414 1.098-.738l.846.99c-.9.924-1.98 1.386-3.24 1.386-.924 0-1.746-.24-2.466-.72-.708-.48-1.266-1.2-1.674-2.16-.396-.972-.594-2.16-.594-3.564 0-1.392.204-2.568.612-3.528.42-.96.984-1.68 1.692-2.16.72-.48 1.53-.72 2.43-.72zm10.941 12.618-.828-3.15h-4.158l-.828 3.15h-1.674l3.582-12.384h2.052l3.582 12.384zm-4.644-4.464h3.474l-1.728-6.588zm15.72 4.464h-2.16l-4.41-10.638c.144 1.584.216 3.126.216 4.626v6.012h-1.512v-12.384h2.142l4.428 10.656c-.048-.42-.102-.996-.162-1.728-.048-.732-.072-1.458-.072-2.178v-6.75h1.53zm10.754 0h-2.16l-4.41-10.638c.144 1.584.216 3.126.216 4.626v6.012h-1.512v-12.384h2.142l4.428 10.656c-.048-.42-.102-.996-.162-1.728-.048-.732-.072-1.458-.072-2.178v-6.75h1.53zm9.043-12.384-.198 1.296h-4.284v4.086h3.726v1.296h-3.726v4.392h4.536v1.314h-6.21v-12.384zm8.186 12.384-2.664-5.274h-.108-1.638v5.274h-1.674v-12.384h2.898c2.952 0 4.428 1.164 4.428 3.492 0 .816-.198 1.506-.594 2.07s-.978.978-1.746 1.242l2.952 5.58zm-3.06-6.552c.864 0 1.506-.186 1.926-.558.42-.384.63-.978.63-1.782 0-.756-.216-1.314-.648-1.674-.42-.36-1.11-.54-2.07-.54h-1.188v4.554z"/><path d="m499.263 301.4c-1.111-18.985-16.765-34.161-35.63-34.161-11.463 0-22.543 5.624-29.421 14.782-.155-.084-.322-.143-.49-.215-.418-.203-.847-.394-1.277-.573-.239-.096-.49-.179-.729-.263-.429-.143-.871-.286-1.301-.406-.239-.06-.49-.131-.728-.191-.478-.107-.956-.191-1.457-.263-.215-.035-.418-.071-.645-.095-.704-.084-1.409-.119-2.125-.119-10.472 0-18.985 8.513-18.985 18.985 0 .262.012.525.035.8v.012c-8.764 4.776-14.794 14.794-14.794 24.823 0 14.95 12.156 27.093 27.093 27.093h51.713c.215 0 .442-.012.657-.036l.131-.012.287.012c.215.012.43.036.657.036h20.68c13.994 0 25.373-11.391 25.373-25.373 0-11.57-8.071-21.958-19.044-24.836zm-99.117 9.875c2.388-3.594 5.636-6.591 9.373-8.382l1.194-.574v-1.325c0-.263.012-.537.036-.812l.012-.334-.024-.442c-.012-.167-.024-.346-.024-.513 0-8.144 6.627-14.771 14.771-14.771.656 0 1.289.06 1.934.144.167.024.322.047.489.083.562.096 1.111.215 1.66.37.072.024.143.036.227.06.597.191 1.182.418 1.767.681.143.071.299.143.442.215.501.25 1.003.525 1.481.835 4.071 2.627 6.77 7.2 6.77 12.394 0 1.159.943 2.102 2.101 2.102s2.102-.943 2.102-2.102c0-5.803-2.627-11.008-6.747-14.495 6.054-7.916 16.012-12.931 25.923-12.931 16.346 0 29.91 12.943 31.331 29.301-2.149-.143-5.385-.227-8.621.263-1.158.167-1.946 1.254-1.767 2.4.155 1.051 1.051 1.791 2.09 1.791.107 0 .215-.012.322-.024 4.693-.705 9.588-.048 9.887-.012 4.298.812 8.131 3.009 11.08 6.066-6.077.012-104.645.012-107.809.012z"/><path d="m527.728 387.728h-14.543v7.272h21.815v-21.815h-7.272z"/><path d="m535 235h-21.815v7.272h14.543v14.543h7.272z"/><path d="m375 395h21.815v-7.272h-14.543v-14.543h-7.272z"/><path d="m375 256.815h7.272v-14.543h14.543v-7.272h-21.815z"/></g></svg>