<?xml version="1.0" encoding="UTF-8" standalone="no"?>
<!-- Created with Inkscape (http://www.inkscape.org/) -->

<svg
   xmlns:dc="http://purl.org/dc/elements/1.1/"
   xmlns:cc="http://creativecommons.org/ns#"
   xmlns:rdf="http://www.w3.org/1999/02/22-rdf-syntax-ns#"
   xmlns:svg="http://www.w3.org/2000/svg"
   xmlns="http://www.w3.org/2000/svg"
   xmlns:sodipodi="http://sodipodi.sourceforge.net/DTD/sodipodi-0.dtd"
   xmlns:inkscape="http://www.inkscape.org/namespaces/inkscape"
   width="256"
   height="256"
   viewBox="0 0 256 256"
   id="svg4179"
   version="1.1"
   inkscape:version="0.91 r13725"
   sodipodi:docname="tileicon.svg"
   inkscape:export-filename="/home/janoszen/opsbears/cscanner/docs/img/favicon.png"
   inkscape:export-xdpi="90"
   inkscape:export-ydpi="90">
  <defs
     id="defs4181" />
  <sodipodi:namedview
     id="base"
     pagecolor="#ffffff"
     bordercolor="#666666"
     borderopacity="1.0"
     inkscape:pageopacity="0.0"
     inkscape:pageshadow="2"
     inkscape:zoom="5.6"
     inkscape:cx="154.66419"
     inkscape:cy="117.27532"
     inkscape:document-units="px"
     inkscape:current-layer="layer1"
     showgrid="false"
     units="px"
     inkscape:window-width="3840"
     inkscape:window-height="2085"
     inkscape:window-x="0"
     inkscape:window-y="24"
     inkscape:window-maximized="1" />
  <metadata
     id="metadata4184">
    <rdf:RDF>
      <cc:Work
         rdf:about="">
        <dc:format>image/svg+xml</dc:format>
        <dc:type
           rdf:resource="http://purl.org/dc/dcmitype/StillImage" />
        <dc:title></dc:title>
      </cc:Work>
    </rdf:RDF>
  </metadata>
  <g
     inkscape:label="Layer 1"
     inkscape:groupmode="layer"
     id="layer1"
     transform="translate(0,-796.36216)">
    <rect
       style="opacity:1;fill:#407dc0;fill-opacity:1;stroke:#fa0000;stroke-width:0;stroke-linecap:butt;stroke-linejoin:round;stroke-miterlimit:4;stroke-dasharray:none;stroke-dashoffset:0;stroke-opacity:1"
       id="rect4732"
       width="255.99998"
       height="255.99998"
       x="1.3092073e-05"
       y="796.36218" />
    <g
       id="g4804"
       transform="translate(37.375644,1.0101525)">
      <g
         transform="matrix(0.72122308,0,0,0.72122308,19.997707,258.70236)"
         id="g4746">
        <path
           style="opacity:1;fill:none;fill-opacity:1;stroke:#ffffff;stroke-width:5;stroke-linecap:butt;stroke-linejoin:round;stroke-miterlimit:4;stroke-dasharray:none;stroke-dashoffset:0;stroke-opacity:1"
           d="m 131.40867,960.14388 a 49.999996,49.999996 0 0 0 70.70799,-0.61582 49.999996,49.999996 0 0 0 -0.61582,-70.70799 l -70.09217,71.32381 z"
           id="path4727"
           inkscape:connector-curvature="0" />
        <path
           style="fill:none;fill-rule:evenodd;stroke:#ffffff;stroke-width:3;stroke-linecap:round;stroke-linejoin:miter;stroke-miterlimit:4;stroke-dasharray:none;stroke-opacity:1"
           d="M 165.80357,924.68359 148.75,907.98716 l 0,0"
           id="path4736"
           inkscape:connector-curvature="0" />
        <circle
           style="opacity:1;fill:#ffffff;fill-opacity:1;stroke:#ffffff;stroke-width:3;stroke-linecap:round;stroke-linejoin:round;stroke-miterlimit:4;stroke-dasharray:none;stroke-dashoffset:0;stroke-opacity:1"
           id="path4738"
           cx="146.11607"
           cy="905.17468"
           r="3.6160715" />
      </g>
      <path
         inkscape:connector-curvature="0"
         id="path4742"
         d="m 131.10087,983.08435 19.57966,-22.85813 17.84936,22.67595"
         style="fill:none;fill-rule:evenodd;stroke:#ffffff;stroke-width:2.16366935;stroke-linecap:round;stroke-linejoin:round;stroke-miterlimit:4;stroke-dasharray:none;stroke-opacity:1" />
      <path
         inkscape:connector-curvature="0"
         id="path4744"
         d="m 150.58946,960.31729 -0.18214,22.67597"
         style="fill:none;fill-rule:evenodd;stroke:#ffffff;stroke-width:2.16366935;stroke-linecap:round;stroke-linejoin:round;stroke-miterlimit:4;stroke-dasharray:none;stroke-opacity:1" />
    </g>
    <path
       style="opacity:1;fill:none;fill-opacity:1;stroke:#ffffff;stroke-width:5;stroke-linecap:round;stroke-linejoin:round;stroke-miterlimit:4;stroke-dasharray:none;stroke-dashoffset:0;stroke-opacity:1"
       d="m 144.59174,865.65453 a 36.625547,36.625549 0 0 0 -36.33048,32.24297 36.625547,36.625549 0 0 0 -29.112729,-14.44987 36.625547,36.625549 0 0 0 -36.627234,36.62485 36.625547,36.625549 0 0 0 0.01915,0.51931 l -2.302215,0 0,0.0335 A 31.222883,31.222885 0 0 0 9.6824275,951.82485 31.222883,31.222885 0 0 0 40.238228,983.01484 l 0,0.0431 158.828892,0 0,-0.0479 a 46.057975,46.057975 0 0 0 1.1918,0.0598 46.057975,46.057975 0 0 0 46.05865,-46.05866 46.057975,46.057975 0 0 0 -46.05865,-46.05626 46.057975,46.057975 0 0 0 -19.71242,4.48237 36.625547,36.625549 0 0 0 -35.95476,-29.78281 z"
       id="path4751"
       inkscape:connector-curvature="0" />
    <text
       xml:space="preserve"
       style="font-style:normal;font-variant:normal;font-weight:normal;font-stretch:normal;font-size:30px;line-height:125%;font-family:Roboto;-inkscape-font-specification:Roboto;letter-spacing:0px;word-spacing:0px;fill:#000000;fill-opacity:1;stroke:none;stroke-width:1px;stroke-linecap:butt;stroke-linejoin:miter;stroke-opacity:1"
       x="29.673368"
       y="961.76001"
       id="text4136"
       sodipodi:linespacing="125%"><tspan
         sodipodi:role="line"
         id="tspan4138"
         x="29.673368"
         y="961.76001"
         style="font-style:normal;font-variant:normal;font-weight:normal;font-stretch:condensed;font-size:30px;font-family:'PT Sans Narrow';-inkscape-font-specification:'PT Sans Narrow Condensed';fill:#ffffff;fill-opacity:1">CSCANNER</tspan></text>
  </g>
</svg>
