<svg width="256" height="256" viewBox="0 0 256 256" fill="none" xmlns="http://www.w3.org/2000/svg">
<rect width="256" height="256" fill="#407DC0"/>
<path d="M181.115 111.68C179.783 88.8979 160.998 70.6866 138.359 70.6866C124.604 70.6866 111.307 77.4352 103.054 88.4251C102.868 88.3248 102.667 88.2532 102.467 88.1672C101.965 87.9236 101.45 87.6943 100.934 87.4794C100.647 87.3648 100.346 87.2645 100.06 87.1642C99.5439 86.9923 99.0137 86.8203 98.4979 86.677C98.2114 86.6054 97.9105 86.5194 97.6239 86.4478C97.0508 86.3188 96.4776 86.2185 95.8758 86.1326C95.6179 86.0896 95.3743 86.0466 95.1021 86.0179C94.2567 85.9176 93.4114 85.8746 92.5517 85.8746C79.9857 85.8746 69.7696 96.0908 69.7696 108.657C69.7696 108.972 69.7839 109.287 69.8126 109.617V109.631C59.2955 115.362 52.0597 127.384 52.0597 139.42C52.0597 157.359 66.646 171.931 84.5708 171.931H146.627C146.885 171.931 147.157 171.916 147.415 171.888L147.573 171.873L147.916 171.888C148.174 171.902 148.432 171.931 148.704 171.931H173.521C190.314 171.931 203.969 158.262 203.969 141.483C203.969 127.599 194.283 115.133 181.115 111.68ZM62.1755 123.53C65.0412 119.217 68.9385 115.62 73.4233 113.471L74.8561 112.783V111.193C74.8561 110.878 74.8705 110.548 74.8991 110.219L74.9135 109.817L74.8848 109.287C74.8705 109.087 74.8561 108.872 74.8561 108.671C74.8561 98.8991 82.8084 90.9469 92.5803 90.9469C93.3684 90.9469 94.1278 91.0185 94.9015 91.1188C95.1021 91.1475 95.2884 91.1761 95.489 91.2191C96.1624 91.3338 96.8215 91.477 97.4806 91.6633C97.5666 91.692 97.6526 91.7063 97.7529 91.7349C98.4693 91.9642 99.1714 92.2364 99.8734 92.5517C100.045 92.6376 100.232 92.7236 100.404 92.8096C101.005 93.1105 101.607 93.44 102.18 93.8126C107.066 96.9648 110.304 102.453 110.304 108.685C110.304 110.075 111.436 111.207 112.826 111.207C114.216 111.207 115.348 110.075 115.348 108.685C115.348 101.722 112.196 95.4746 107.253 91.2908C114.517 81.7911 126.467 75.7732 138.359 75.7732C157.975 75.7732 174.252 91.3051 175.957 110.935C173.378 110.763 169.495 110.663 165.612 111.25C164.222 111.451 163.276 112.755 163.491 114.13C163.678 115.391 164.752 116.279 165.999 116.279C166.128 116.279 166.257 116.265 166.386 116.251C172.017 115.405 177.891 116.193 178.25 116.236C183.408 117.211 188.007 119.847 191.546 123.515C184.253 123.53 65.9726 123.53 62.1755 123.53Z" fill="white"/>
<path d="M215.274 215.274H197.822V224H224V197.822H215.274V215.274Z" fill="white"/>
<path d="M224 32H197.822V40.726H215.274V58.1779H224V32Z" fill="white"/>
<path d="M32 224H58.1779V215.274H40.726V197.822H32V224Z" fill="white"/>
<path d="M32 58.1779H40.726V40.726H58.1779V32H32V58.1779Z" fill="white"/>
</svg>
